<svg width="127" height="31" viewBox="0 0 127 31" fill="none" xmlns="http://www.w3.org/2000/svg">
<path d="M9.408 24.128C8.81067 24.128 8.26667 24.0213 7.776 23.808C7.28533 23.5947 6.92267 23.328 6.688 23.008C7.02933 21.8773 7.28533 20.6507 7.456 19.328C7.648 18.0053 7.744 16.6933 7.744 15.392C7.744 13.7707 7.59467 12.256 7.296 10.848C6.99733 9.41867 6.53867 8.26667 5.92 7.392C5.32267 6.51733 4.544 6.08 3.584 6.08C2.85867 6.08 2.03733 6.37867 1.12 6.976L0.8 6.848C0.906667 5.01333 1.36533 3.57333 2.176 2.528C2.98667 1.48267 4.01067 0.959999 5.248 0.959999C6.144 0.959999 6.95467 1.216 7.68 1.728C8.42667 2.24 9.07733 2.92267 9.632 3.776C10.208 4.62933 10.6987 5.58933 11.104 6.656C11.5307 7.72267 11.872 8.81067 12.128 9.92C12.5973 7.72267 13.2053 5.96267 13.952 4.64C14.6987 3.296 15.4987 2.32533 16.352 1.728C17.2053 1.10933 18.0267 0.799999 18.816 0.799999C19.8187 0.799999 20.672 1.20533 21.376 2.016C22.1013 2.82667 22.464 3.872 22.464 5.152C22.464 5.856 22.336 6.61333 22.08 7.424C21.4613 7.08267 20.8 6.912 20.096 6.912C19.1787 6.912 18.2613 7.18933 17.344 7.744C16.4267 8.27733 15.584 9.04533 14.816 10.048C14.0693 11.0293 13.4827 12.192 13.056 13.536C13.12 14.6453 13.152 15.6053 13.152 16.416C13.152 17.5253 13.088 18.5707 12.96 19.552C12.832 20.512 12.5973 21.6427 12.256 22.944C11.8507 23.3493 11.392 23.648 10.88 23.84C10.3893 24.032 9.89867 24.128 9.408 24.128ZM25.7798 24.224C24.1798 24.224 22.8571 23.904 21.8118 23.264C20.7664 22.624 19.9878 21.7813 19.4758 20.736C18.9851 19.6693 18.7398 18.5387 18.7398 17.344C18.7398 16.2133 18.9424 15.0827 19.3478 13.952C19.7744 12.8213 20.3824 11.7973 21.1718 10.88C21.9824 9.94133 22.9638 9.19467 24.1158 8.64C25.2678 8.064 26.5904 7.776 28.0838 7.776C29.6838 7.776 30.9958 8.10667 32.0198 8.768C33.0651 9.408 33.8331 10.2613 34.3238 11.328C34.8358 12.3947 35.0918 13.536 35.0918 14.752C35.0918 15.8613 34.8891 16.9813 34.4838 18.112C34.0784 19.2213 33.4704 20.2453 32.6598 21.184C31.8704 22.1013 30.8998 22.8373 29.7478 23.392C28.5958 23.9467 27.2731 24.224 25.7798 24.224ZM26.6438 21.504C27.2198 21.504 27.6998 21.2053 28.0838 20.608C28.4678 20.0107 28.7558 19.2533 28.9478 18.336C29.1398 17.3973 29.2358 16.448 29.2358 15.488C29.2358 14.6347 29.1504 13.8347 28.9798 13.088C28.8304 12.32 28.5958 11.7013 28.2758 11.232C27.9558 10.7413 27.5398 10.496 27.0278 10.496C26.4731 10.496 25.9931 10.7947 25.5878 11.392C25.2038 11.9893 24.9158 12.7467 24.7238 13.664C24.5318 14.5813 24.4358 15.5307 24.4358 16.512C24.4358 17.3653 24.5104 18.176 24.6598 18.944C24.8304 19.6907 25.0758 20.3093 25.3958 20.8C25.7158 21.2693 26.1318 21.504 26.6438 21.504ZM41.216 24.128C40.256 24.128 39.4453 23.7333 38.784 22.944C38.144 22.1547 37.824 21.0987 37.824 19.776C37.824 19.0507 37.9093 18.272 38.08 17.44C38.2507 16.608 38.4213 15.8187 38.592 15.072C38.7413 14.5173 38.8587 14.0053 38.944 13.536C39.0507 13.0453 39.104 12.6507 39.104 12.352C39.104 11.968 39.0187 11.6907 38.848 11.52C38.6987 11.3493 38.5173 11.264 38.304 11.264C38.0907 11.264 37.8773 11.3387 37.664 11.488C37.4507 11.616 37.28 11.8187 37.152 12.096L36.896 12C36.896 11.1253 37.1093 10.3787 37.536 9.76C37.9627 9.14133 38.5067 8.672 39.168 8.352C39.8293 8.032 40.5013 7.872 41.184 7.872C41.7387 7.872 42.272 7.98933 42.784 8.224C43.296 8.43733 43.712 8.77867 44.032 9.248C44.3733 9.71733 44.544 10.304 44.544 11.008C44.544 11.4347 44.48 11.9467 44.352 12.544C44.2453 13.1413 44.1173 13.76 43.968 14.4C43.8187 15.0613 43.6693 15.7333 43.52 16.416C43.392 17.0773 43.328 17.664 43.328 18.176C43.328 18.6453 43.4027 19.0293 43.552 19.328C43.7013 19.6267 43.9253 19.776 44.224 19.776C44.7787 19.776 45.3973 19.264 46.08 18.24C46.784 17.216 47.3493 15.84 47.776 14.112C47.8613 13.7707 47.936 13.408 48 13.024C48.064 12.64 48.096 12.2453 48.096 11.84C48.096 11.52 48.0747 11.2 48.032 10.88C47.9893 10.5387 47.9253 10.1973 47.84 9.856V9.632C48.1813 9.056 48.6187 8.61867 49.152 8.32C49.7067 8.02133 50.2613 7.872 50.816 7.872C51.5627 7.872 52.2347 8.128 52.832 8.64C53.4293 9.152 53.728 9.89867 53.728 10.88C53.728 11.456 53.6213 12.128 53.408 12.896C53.1947 13.6427 52.96 14.4213 52.704 15.232C52.448 16.0213 52.2133 16.8 52 17.568C51.7867 18.336 51.68 19.0187 51.68 19.616C51.68 20.4907 51.9893 20.928 52.608 20.928C52.7787 20.928 52.9813 20.8853 53.216 20.8C53.472 20.6933 53.7067 20.4907 53.92 20.192L54.144 20.256C54.144 21.024 53.9307 21.7067 53.504 22.304C53.0987 22.88 52.576 23.328 51.936 23.648C51.296 23.968 50.6347 24.128 49.952 24.128C49.0773 24.128 48.288 23.808 47.584 23.168C46.9013 22.528 46.56 21.4827 46.56 20.032V19.968C45.6853 21.4613 44.7787 22.528 43.84 23.168C42.9013 23.808 42.0267 24.128 41.216 24.128ZM59.5477 24.128C58.7798 24.128 58.0971 23.8187 57.4998 23.2C56.9024 22.56 56.6038 21.664 56.6038 20.512C56.6038 19.9573 56.6678 19.328 56.7958 18.624C56.9238 17.92 57.0731 17.2053 57.2438 16.48C57.4144 15.7333 57.5638 15.04 57.6918 14.4C57.8198 13.7387 57.8838 13.1947 57.8838 12.768C57.8838 12.32 57.7984 11.968 57.6278 11.712C57.4784 11.4347 57.2758 11.296 57.0198 11.296C56.6144 11.296 56.1984 11.5733 55.7718 12.128L55.5798 12C55.5584 11.6587 55.6331 11.2533 55.8038 10.784C55.9744 10.3147 56.2411 9.86667 56.6038 9.44C56.9664 8.992 57.4251 8.61867 57.9798 8.32C58.5558 8.02133 59.2278 7.872 59.9958 7.872C61.1264 7.872 61.9478 8.20267 62.4598 8.864C62.9718 9.504 63.2278 10.2827 63.2278 11.2C63.2278 11.3493 63.2171 11.5093 63.1958 11.68C63.1958 11.8293 63.1851 11.9787 63.1638 12.128C63.9318 10.7413 64.7318 9.68533 65.5638 8.96C66.4171 8.21333 67.2064 7.84 67.9318 7.84C68.6144 7.84 69.1158 8.10667 69.4358 8.64C69.7558 9.17333 69.9158 9.81333 69.9158 10.56C69.9158 11.2427 69.7771 11.936 69.4998 12.64C69.2438 13.344 68.8491 13.9307 68.3158 14.4C67.8038 14.848 67.1744 15.0613 66.4278 15.04L66.2998 14.976C66.2784 14.4213 66.0971 13.984 65.7558 13.664C65.4144 13.344 65.0304 13.184 64.6038 13.184C64.0278 13.184 63.4838 13.472 62.9718 14.048C62.4811 14.624 62.2358 15.456 62.2358 16.544C62.2358 17.2053 62.3104 17.92 62.4598 18.688C62.6091 19.456 62.6838 20.1067 62.6838 20.64C62.6838 21.28 62.5344 21.8667 62.2358 22.4C61.9371 22.9333 61.5531 23.36 61.0838 23.68C60.6144 23.9787 60.1024 24.128 59.5477 24.128ZM78.7183 24.224C77.8863 24.224 77.0436 24.128 76.1903 23.936C75.3369 23.744 74.5476 23.4453 73.8223 23.04C73.1183 22.6133 72.5423 22.0693 72.0943 21.408C71.6676 20.7253 71.4543 19.9147 71.4543 18.976C71.4543 18.8693 71.4543 18.7733 71.4543 18.688C71.4543 18.5813 71.4649 18.4533 71.4863 18.304C71.5503 17.728 71.6889 17.0133 71.9023 16.16C72.1369 15.3067 72.4036 14.4 72.7023 13.44C73.0009 12.48 73.2889 11.5307 73.5663 10.592C73.8649 9.65333 74.1103 8.8 74.3023 8.032C74.4943 7.24267 74.5903 6.61333 74.5903 6.144C74.5903 5.632 74.4516 5.376 74.1743 5.376C73.8969 5.376 73.4809 5.64267 72.9263 6.176C72.3716 6.70933 71.7316 7.59467 71.0063 8.832L70.8143 8.768C70.8143 7.04 71.1983 5.568 71.9663 4.352C72.7556 3.11467 73.8649 2.176 75.2943 1.536C76.7449 0.874666 78.4516 0.543999 80.4143 0.543999C82.2489 0.543999 83.8276 0.821332 85.1503 1.376C86.4729 1.90933 87.5503 2.64533 88.3823 3.584C89.2356 4.52267 89.8649 5.6 90.2703 6.816C90.6756 8.01067 90.8783 9.26933 90.8783 10.592C90.8783 12.192 90.5903 13.8027 90.0143 15.424C89.4596 17.024 88.6489 18.496 87.5823 19.84C86.5369 21.1627 85.2569 22.2293 83.7423 23.04C82.2489 23.8293 80.5743 24.224 78.7183 24.224ZM79.2623 20C80.1156 20 80.8836 19.7547 81.5663 19.264C82.2703 18.752 82.8783 18.08 83.3903 17.248C83.9023 16.416 84.2969 15.4987 84.5743 14.496C84.8516 13.472 84.9903 12.448 84.9903 11.424C84.9903 10.208 84.7769 9.06667 84.3503 8C83.9449 6.93333 83.2836 6.06933 82.3663 5.408C81.4489 4.74667 80.2543 4.416 78.7823 4.416C78.8889 4.82133 78.9636 5.23733 79.0063 5.664C79.0703 6.09067 79.1023 6.528 79.1023 6.976C79.1023 7.95733 79.0063 8.96 78.8142 9.984C78.6436 11.008 78.4409 12 78.2063 12.96C77.9929 13.92 77.7903 14.816 77.5983 15.648C77.4276 16.48 77.3423 17.216 77.3423 17.856C77.3423 18.5173 77.4809 19.04 77.7583 19.424C78.0356 19.808 78.5369 20 79.2623 20ZM99.1235 24.224C97.5235 24.224 96.2008 23.904 95.1555 23.264C94.1102 22.624 93.3315 21.7813 92.8195 20.736C92.3288 19.6693 92.0835 18.5387 92.0835 17.344C92.0835 16.2133 92.2862 15.0827 92.6915 13.952C93.1182 12.8213 93.7262 11.7973 94.5155 10.88C95.3262 9.94133 96.3075 9.19467 97.4595 8.64C98.6115 8.064 99.9342 7.776 101.428 7.776C103.028 7.776 104.34 8.10667 105.364 8.768C106.409 9.408 107.177 10.2613 107.668 11.328C108.18 12.3947 108.436 13.536 108.436 14.752C108.436 15.8613 108.233 16.9813 107.828 18.112C107.422 19.2213 106.814 20.2453 106.004 21.184C105.214 22.1013 104.244 22.8373 103.092 23.392C101.94 23.9467 100.617 24.224 99.1235 24.224ZM99.9875 21.504C100.564 21.504 101.044 21.2053 101.428 20.608C101.812 20.0107 102.1 19.2533 102.292 18.336C102.484 17.3973 102.58 16.448 102.58 15.488C102.58 14.6347 102.494 13.8347 102.324 13.088C102.174 12.32 101.94 11.7013 101.62 11.232C101.3 10.7413 100.884 10.496 100.372 10.496C99.8168 10.496 99.3368 10.7947 98.9315 11.392C98.5475 11.9893 98.2595 12.7467 98.0675 13.664C97.8755 14.5813 97.7795 15.5307 97.7795 16.512C97.7795 17.3653 97.8542 18.176 98.0035 18.944C98.1742 19.6907 98.4195 20.3093 98.7395 20.8C99.0595 21.2693 99.4755 21.504 99.9875 21.504ZM117.986 30.4C116.941 30.4 116.077 30.0907 115.394 29.472C114.711 28.8533 114.37 27.9787 114.37 26.848C114.37 25.632 114.797 24.2027 115.65 22.56C115.501 22.6027 115.351 22.6347 115.202 22.656C115.053 22.6773 114.903 22.688 114.754 22.688C113.517 22.688 112.471 22.1547 111.618 21.088C110.786 20 110.37 18.496 110.37 16.576C110.37 14.848 110.701 13.3227 111.362 12C112.045 10.6773 112.909 9.64267 113.954 8.896C114.999 8.14933 116.087 7.776 117.218 7.776C118.007 7.776 118.722 7.97867 119.362 8.384C120.002 8.768 120.525 9.39733 120.93 10.272C120.951 10.0587 120.962 9.86667 120.962 9.696C120.962 9.52533 120.962 9.36533 120.962 9.216C120.962 8.85333 121.239 8.55467 121.794 8.32C122.349 8.08533 122.967 7.968 123.65 7.968C124.269 7.968 124.845 8.08533 125.378 8.32C125.911 8.55467 126.263 8.94933 126.434 9.504L126.498 9.696C126.306 9.86667 126.135 10.4213 125.986 11.36C125.858 12.2987 125.698 13.6 125.506 15.264C125.378 16.3093 125.218 17.504 125.026 18.848C124.834 20.1707 124.567 21.5147 124.226 22.88C123.906 24.224 123.479 25.4613 122.946 26.592C122.413 27.744 121.741 28.6613 120.93 29.344C120.119 30.048 119.138 30.4 117.986 30.4ZM116.93 19.008C117.549 19.008 118.231 18.5067 118.978 17.504C119.746 16.48 120.354 15.0187 120.802 13.12C120.418 12.288 120.023 11.7013 119.618 11.36C119.234 10.9973 118.839 10.816 118.434 10.816C117.901 10.816 117.399 11.0827 116.93 11.616C116.461 12.1493 116.077 12.832 115.778 13.664C115.501 14.4747 115.362 15.3173 115.362 16.192C115.362 17.088 115.511 17.7813 115.81 18.272C116.109 18.7627 116.482 19.008 116.93 19.008ZM116.546 26.72C117.271 26.72 118.007 26.0053 118.754 24.576C119.522 23.168 120.055 21.1733 120.354 18.592C118.733 20.7893 117.602 22.4853 116.962 23.68C116.343 24.8533 116.034 25.6853 116.034 26.176C116.034 26.5387 116.205 26.72 116.546 26.72Z" fill="white"/>
</svg>
